<?xml version="1.0" encoding="utf-8"?>
<!-- Generator: Adobe Illustrator 19.2.1, SVG Export Plug-In . SVG Version: 6.00 Build 0)  -->
<svg version="1.1" id="Capa_1" xmlns="http://www.w3.org/2000/svg" xmlns:xlink="http://www.w3.org/1999/xlink" x="0px" y="0px"
	 viewBox="0 0 30 30" style="enable-background:new 0 0 30 30;" xml:space="preserve">
<style type="text/css">
	.st0{fill:#82878C;}
</style>
<g>
	<g>
		<g>
			<path class="st0" d="M14.6,12.4c-1.4-2.5-2.9-4.5-3-4.6c-2.2,1.1-3.9,3.1-4.4,5.6C7.3,13.3,10.7,13.4,14.6,12.4z"/>
			<path class="st0" d="M13.1,7.2C13.1,7.2,13.1,7.2,13.1,7.2C13.1,7.2,13.1,7.2,13.1,7.2L13.1,7.2z"/>
			<path class="st0" d="M20.3,9C18.9,7.7,17,7,15,7c-0.7,0-1.3,0.1-1.9,0.2c0.1,0.2,1.6,2.2,3,4.7C19.1,10.7,20.3,9,20.3,9z"/>
			<path class="st0" d="M16.4,16.3c-4.8,1.7-6.3,5-6.3,5c1.4,1.1,3.1,1.7,4.9,1.7c1.1,0,2.2-0.2,3.1-0.6
				C18,21.7,17.6,19.2,16.4,16.3C16.4,16.3,16.4,16.3,16.4,16.3z"/>
			<path class="st0" d="M15.6,15.1c0.1,0,0.2-0.1,0.3-0.1c-0.2-0.5-0.4-0.9-0.7-1.4c-4.1,1.2-8.1,1.1-8.3,1.1c0,0.1,0,0.2,0,0.3
				c0,2.1,0.8,4,2.1,5.4l0,0C9,20.4,11.2,16.5,15.6,15.1z"/>
			<path class="st0" d="M15,0C6.7,0,0,6.7,0,15c0,8.3,6.7,15,15,15c8.3,0,15-6.7,15-15C30,6.7,23.3,0,15,0z M24.2,16.9
				c-0.1,0.6-0.3,1.2-0.5,1.8c-0.2,0.6-0.5,1.1-0.9,1.6c-0.3,0.5-0.7,1-1.1,1.4c-0.4,0.4-0.9,0.8-1.4,1.1c-0.5,0.3-1,0.6-1.6,0.9
				c-0.6,0.2-1.2,0.4-1.8,0.5c-0.6,0.1-1.3,0.2-1.9,0.2c-0.6,0-1.3-0.1-1.9-0.2c-0.6-0.1-1.2-0.3-1.8-0.5c-0.6-0.2-1.1-0.5-1.6-0.9
				c-0.5-0.3-1-0.7-1.4-1.1c-0.4-0.4-0.8-0.9-1.1-1.4c-0.3-0.5-0.6-1-0.9-1.6c-0.2-0.6-0.4-1.2-0.5-1.8c-0.1-0.6-0.2-1.3-0.2-1.9
				c0-0.6,0.1-1.3,0.2-1.9c0.1-0.6,0.3-1.2,0.6-1.8c0.2-0.6,0.5-1.1,0.9-1.6c0.3-0.5,0.7-1,1.1-1.4c0.4-0.4,0.9-0.8,1.4-1.2
				c0.5-0.3,1-0.6,1.6-0.9c0.6-0.2,1.2-0.4,1.8-0.5c0.6-0.1,1.3-0.2,1.9-0.2c0.6,0,1.3,0.1,1.9,0.2c0.6,0.1,1.2,0.3,1.8,0.5
				c0.6,0.2,1.1,0.5,1.6,0.9c0.5,0.3,1,0.7,1.4,1.2c0.4,0.4,0.8,0.9,1.1,1.4c0.3,0.5,0.6,1,0.9,1.6c0.2,0.6,0.4,1.2,0.5,1.8
				c0.1,0.6,0.2,1.3,0.2,1.9C24.4,15.6,24.4,16.3,24.2,16.9z"/>
			<path class="st0" d="M17.9,15.9c1.1,2.9,1.5,5.3,1.6,5.7c1.8-1.2,3.1-3.2,3.4-5.4C22.8,16.2,20.5,15.5,17.9,15.9z"/>
			<path class="st0" d="M16.7,13.1c0.2,0.4,0.4,0.8,0.5,1.2c0.1,0.1,0.1,0.3,0.2,0.4c2.8-0.3,5.5,0.2,5.6,0.3c0-1.9-0.7-3.7-1.8-5
				C21.2,9.9,19.9,11.8,16.7,13.1z"/>
		</g>
	</g>
</g>
</svg>
