<?xml version="1.0" standalone="no"?>
<!DOCTYPE svg PUBLIC "-//W3C//DTD SVG 1.1//EN" "http://www.w3.org/Graphics/SVG/1.1/DTD/svg11.dtd">
<svg xmlns="http://www.w3.org/2000/svg">
<metadata>Copyright (C) 2016 by original authors @ fontello.com</metadata>
<defs>
<font id="fontello" horiz-adv-x="1000" >
<font-face font-family="fontello" font-weight="400" font-stretch="normal" units-per-em="1000" ascent="850" descent="-150" />
<missing-glyph horiz-adv-x="1000" />
<glyph glyph-name="set-5-compare" unicode="&#xe800;" d="M960 430c-20 0-33 13-40 27-40 186-207 313-393 313s-354-127-394-313c-6-14-26-27-46-27-20 7-34 27-27 47 47 220 240 373 467 373s420-153 466-373c7-20-6-40-26-47 0 0-7 0-7 0l0 0z m13-7c-6 0-6 0-13 0l-127 54c-20 6-26 26-20 46 7 20 27 27 47 20l93-40 40 94c7 20 27 26 47 20 20-7 27-27 20-47l-53-127c-7-13-7-20-20-20-7 0-7 0-14 0l0 0z m-440-546c-226 0-420 153-466 373-7 20 6 40 26 47s40-7 47-27c40-187 207-313 393-313s354 133 394 313c6 20 26 33 46 27 20-7 34-27 27-47-47-220-240-373-467-373l0 0z m-493 226c-7 0-7 0-13 0-27 14-34 34-27 54l53 126c14 20 34 27 54 20l126-53c20-7 27-27 20-47-6-20-26-26-46-20l-94 40-40-93c-6-13-20-27-33-27l0 0z" horiz-adv-x="1067" />

<glyph glyph-name="set-5-quickbuy" unicode="&#xe801;" d="M636-129c-7 0-15 0-22 0-21 8-28 29-28 43v257c-143 0-279-57-379-157l-128-128c-15-15-36-22-50-7-22 7-29 21-29 42v29c0 336 257 614 586 636v214c0 21 14 36 28 43 22 7 43 7 57-7l458-422c7-14 14-21 14-35 0-15-7-29-14-36l-458-457c-7-7-21-15-35-15l0 0z m-43 400h43c28 0 50-21 50-50v-185l335 335-335 315v-150c0-22-22-43-50-43-265 0-486-193-536-443l36 36c121 114 285 185 457 185l0 0z" horiz-adv-x="1143" />

<glyph glyph-name="icon-cart-1" unicode="&#xe802;" d="M875 538h-125v8c0 134-107 242-241 242h-16c-134 0-243-108-243-242v-8h-125l-62-626h875l-63 626z m-562 8c0 99 81 179 180 179h16c99 0 179-80 179-179v-8h-375v8z m-181-571l49 500h69v-71c-19-11-31-31-31-54 0-35 28-62 62-62s63 27 63 62c0 23-13 43-31 54v71h375v-71c-19-11-32-31-32-54 0-35 28-62 63-62s62 27 62 62c0 23-12 43-31 54v71h69l49-500h-736z" horiz-adv-x="1000" />

<glyph glyph-name="icon-cart-2" unicode="&#xe803;" d="M371 411c17 0 31 14 31 31v122c0 54 44 99 99 99s99-45 99-99v-122c0-17 14-31 31-31 17 0 31 14 31 31v122c0 89-72 161-161 161-89 0-161-72-161-161v-122c0-17 14-31 31-31z m488 70h-165v-39c0-35-28-63-63-63s-62 28-62 63v39h-136v-39c0-35-28-63-62-63s-63 28-63 63v39h-167c-9 0-14-7-12-15l109-446c7-25 33-45 59-45h406c26 0 52 20 59 45l109 446c2 8-3 15-12 15z" horiz-adv-x="1000" />

<glyph glyph-name="set-1-cart" unicode="&#xe804;" d="M111 461l0 0v-500c0 0 0 0 0 0h611c0 0 0 0 0 0v500c0 0 0 0 0 0l-611 0c0 0 0 0 0 0l0 0z m-111 0c0 61 50 111 111 111h611c61 0 111-50 111-111v-500c0-61-50-111-111-111h-611c-61 0-111 50-111 111v500l0 0z m167 0l0 0 0 0-56 56v0l611 0 0-56h-55v50 117c0 94-73 166-167 166h-167c-94 0-166-72-166-166v-111-56z m-56 0v56 111c0 122 100 222 222 222h167c122 0 222-100 222-222v-117-50l-611 0 0 0z m167-222h278v-56h-278v56z m111-167v278h55v-278h-55z" horiz-adv-x="833" />

<glyph glyph-name="set-1-compare" unicode="&#xe805;" d="M77 465h154v-615h-154v615z m308-153h154v-462h-154v462z m307 153h154v-615h-154v615z m308-230h154v-385h-154v385z m-946 507l385-230 23-16 23 16 307 230-53 0 384-384 54 54-385 384-23 31-23-23-307-231 46 0-385 231-46-62z" horiz-adv-x="1231" />

<glyph glyph-name="set-1-quickview" unicode="&#xe806;" d="M92 442c8 8 16 25 41 50 34 33 75 75 117 108 300 233 667 233 1075-167l58 59c-441 433-850 433-1183 166-50-33-92-75-125-108-25-25-42-50-50-58l67-50 0 0z m1225-117c-9-8-17-25-42-50-25-33-67-75-108-108-309-234-667-234-1075 158l-59-58c442-434 850-434 1184-167 50 42 91 75 125 117 25 25 33 41 41 58l-66 50 0 0z m-609-225c159 0 292 133 292 292s-133 291-292 291-291-133-291-291 133-292 291-292z m-83 333c25 0 42 17 42 42s-17 42-42 42-42-17-42-42 17-42 42-42z" horiz-adv-x="1417" />

<glyph glyph-name="set-2-quickview" unicode="&#xe807;" d="M436 129l0 0c157 0 293 128 293 292s-136 286-293 286-293-128-293-293 128-285 293-285l0 0z m-436 285c0 243 193 436 436 436s435-193 435-436-192-435-435-435-436 200-436 435z m664-328l93 93 236-236-93-93-236 236z" horiz-adv-x="1000" />

<glyph glyph-name="icon-cart-3" unicode="&#xe808;" d="M879 571h-461c-15 0-24-11-19-26l73-213c3-12 16-21 28-21h303c12 0 24 9 28 21l64 218c3 12-4 21-16 21z m-350-506c0-38-31-69-69-69s-69 31-69 69c0 38 31 69 69 69s69-31 69-69z m292-1c0-38-31-69-69-69s-69 31-69 69c0 38 30 69 69 69s69-31 69-69z m13 177h-403l-162 464h-125c-22 0-39-17-39-39s17-39 39-39h70l161-465h459c22 0 39 18 39 40s-17 39-39 39z" horiz-adv-x="1000" />

<glyph glyph-name="set-2-cart" unicode="&#xe809;" d="M0 556h177l-59 41 117-412 12-41h47 588 30l17 24 159 229-100 65-159-230 53 30h-588l59-41-118 411-11 42h-47-177v-118z m724-529h-212c-18 35-59 58-100 58-65 0-118-53-118-117s53-118 118-118 117 53 117 118h177c0-65 53-118 118-118s117 53 117 118-53 117-117 117c-42 0-83-23-100-58z m-136 823h59v-412h-59v412z m36-176h200v-59h-412v59h212z" horiz-adv-x="1118" />

<glyph glyph-name="set-2-wishlist" unicode="&#xe80a;" d="M632 534v-579h-527v579h53v106h-105-53v-737-53h737v53 684 53h-158v-106h53z m-53 158c0-5 0-5-5-10l-95-90 21-126c0 0 0-5 0-5 0-6 0-6-5-11 0 0-5-5-5-5-6 0-6 0-11 5l-111 63-115-63c-6 0-6-5-11-5-5 0-5 0-10 5 0 0-6 5-6 11 0 0 0 5 0 5l21 126-84 90c-5 5-5 10-5 10 0 5 5 11 16 11l126 21 58 116c0 5 5 10 10 10s11-5 11-10l58-116 126-21c11 0 16 0 16-11l0 0z m-368-368h315v-53h-315v53z m0-158h315v-53h-315v53z" horiz-adv-x="737" />

<glyph glyph-name="set-2-quickbuy" unicode="&#xe80b;" d="M0 600h188l-63 44 125-438 13-43h50 625 31l19 25 168 243-106 69-169-244 57 32h-625l62-44-125 437-12 44h-50-188v-125z m563-625c0-69-57-125-125-125s-125 56-125 125 56 125 125 125c43 0 87-25 106-62h219c18 37 62 62 106 62 69 0 125-56 125-125s-56-125-125-125-125 56-125 125h-181z m250 688h-250v-63h250v-125h62v94-31h63v62h62v63h-62v62h-63v-31 94h-62v-125z m-375 0h125v-63h-125v63z m312 187h63v-437h-63v437z" horiz-adv-x="1188" />

<glyph glyph-name="set-5-wishlist" unicode="&#xe80c;" d="M188 663m0 0m0 0m0-250m0 0m0 0m437 250m0 0m0 0m0-250m0 0m0 0m-437 250m587-813c6 0-50 0-44 6 13 6 19 19 19 31v926c0 18-19 37-37 37h-675c-19 0-38-19-38-37v-926c0-12 6-25 19-31 19-6 31-6 44 0l81 63 62-44c13-13 32-13 44 0l63 44 62-44c13-13 31-13 44 0l62 44 63-44c12-13 31-13 44 0l62 44 19-63c6-6 19-6 25-6h81z m-319 175l0 0c-6 0-12 0-25-6l-56-44-62 44c-13 12-32 12-44 0l-63-44-62 44c-13 12-31 12-44 0l-37-32v801h625v-801l-38 32c-12 12-31 12-44 0l-62-44-63 44c-6 0-12 6-25 6l0 0z m-268 575h375v63h-375v-63z m0-187h375v62h-375v-62z m0-188h375v63h-375v-63z" horiz-adv-x="813" />

<glyph glyph-name="set-3-compare" unicode="&#xe80d;" d="M6 317c-6 55 0 105 11 150 44 155 189 272 361 272v105c0 6 5 6 11 6l211-156c6 0 6-5 0-11l-211-155c-6-6-11 0-11 5v100c-111 0-211-72-250-166-17-39-22-78-22-123 5-61 27-111 61-155 16-22 16-56-11-78-23-17-56-11-73 11-44 56-72 122-77 195l0 0z m605 194c33-44 56-100 61-155 0-45-5-84-22-123-39-100-139-166-250-166v100c0 5-6 11-11 5l-211-155c-6 0-6-6 0-11l211-150c5-6 11 0 11 5v100c172 0 317 117 361 272 11 45 17 100 11 150-5 73-39 139-78 195-16 22-50 28-72 11-22-17-28-56-11-78l0 0z" horiz-adv-x="778" />

<glyph glyph-name="set-5-cart" unicode="&#xe80e;" d="M644-150h-538c-62 0-106 44-106 106v0l44 613c6 19 19 31 37 31h588c19 0 31-12 37-31l44-613v0c0-62-44-106-106-106l0 0z m-581 100c0-19 18-38 37-38h556c19 0 38 13 38 38l-50 588h-538c0 0-43-588-43-588l0 0z m462 588c-19 0-31 18-31 37v63c0 75-56 131-119 131s-119-56-119-125v-63c0-25-12-43-31-43s-37 18-37 37v63c0 118 81 212 187 212s188-94 188-206v-63c0-25-19-43-38-43l0 0z m-306-63c19 0 31-12 31-31s-12-31-31-31-31 12-31 31 12 31 31 31z m312 0c19 0 32-12 32-31s-13-31-32-31-31 12-31 31 13 31 31 31z" horiz-adv-x="750" />

<glyph glyph-name="set-3-cart" unicode="&#xe80f;" d="M559 162c-65 0-130 47-153 100l-171 441c-6 24-41 47-64 47h-124c-29 0-47 24-47 47s18 47 47 47h124c64 0 129-47 153-100l176-441c12-24 41-47 65-47h429c24 0 53 23 65 47l82 235c0 6 0 12 0 12 0 0-6 0-12 0h-594c-23 0-47 18-47 47s18 47 47 47h594c36 0 65-17 89-41 17-24 23-59 11-94l-82-235c-23-59-88-106-147-106h-441z m-112-53c53 0 100-47 100-100s-47-100-100-100-100 47-100 100 41 100 100 100z m647 0c53 0 100-47 100-100s-47-100-100-100-100 47-100 100 41 100 100 100z m-117 329h-424c-12 0-24 12-24 30 0 17 12 29 24 29h424c11 0 23-12 23-29s-12-30-23-30l0 0z m-348-111c-11 0-23 11-23 23 0 12 12 24 23 24h330c12 0 23-12 23-24 0-12-11-23-23-23h-330z" horiz-adv-x="1235" />

<glyph glyph-name="set-5-quickview" unicode="&#xe810;" d="M250-86c-143 0-250 115-250 250s114 257 250 257 250-114 250-250-107-257-250-257l0 0z m0 436c-100 0-186-79-186-186s86-185 186-185 186 85 186 185-79 186-186 186l0 0z m643-436c-143 0-250 115-250 250s107 257 250 257 250-114 250-257-114-250-250-250l0 0z m0 436c-107 0-186-79-186-186s86-185 186-185 186 85 186 185-86 186-186 186l0 0z m-222-214h-200c-21 0-35 14-35 35 0 22 14 36 35 36h200c22 0 36-14 36-36 0-21-14-35-36-35l0 0z m-578 150c-7 0-7 0-14 0-15 7-22 28-15 50l150 364c36 86 122 150 222 150 21 0 35-14 35-36s-21-35-35-35c-72 0-136-43-157-108l-158-364c-7-14-14-21-28-21l0 0z m957 0c-14 0-21 7-29 21l-157 364c-28 65-85 108-157 108-21 0-36 21-36 35s15 36 36 36c100 0 186-64 222-150l157-364c7-22 0-36-22-43-7-7-7-7-14-7l0 0z" horiz-adv-x="1143" />

<glyph glyph-name="set-3-quickbuy" unicode="&#xe811;" d="M556 189c-23 0-45-6-67-17-39-16-67-50-78-89-11-39-11-83 6-116 27-56 77-89 139-89 22 0 44 5 66 16 39 17 67 50 78 89 11 39 11 84-6 117-27 56-77 89-138 89l0 0z m55-172c-5-17-17-28-33-34-11-5-17-5-28-5-22 0-44 11-56 33-5 17-11 33-5 50s17 28 33 33c11 6 17 6 28 6 22 0 44-11 56-33 11-17 11-39 5-50l0 0z m-167 205c6 0 12 0 23 6 22 11 33 39 22 61l-233 478c-34 66-106 94-167 66l-61-33c-22-11-34-39-22-61 11-22 38-33 61-22l66 33c11 6 34-6 39-22l234-478c5-17 22-28 38-28l0 0z m706 117c-11 22-39 33-61 22l-317-155c-22-12-33-39-22-62 6-16 22-27 39-27 5 0 11 0 22 5l317 156c28 11 33 39 22 61l0 0z m-544-61c5-17 22-28 38-28 6 0 12 0 23 6l294 144c11 6 22 17 22 28 6 11 6 22 0 33l-139 283c-11 23-38 34-61 23l-294-145c-11-5-22-11-22-28-6-11-6-22 0-33l139-283 0 0z m172 383l100-200-211-100-100 200 211 100 0 0z m-11-78c-6 11-23 17-34 11l-94-44c-11-6-17-17-11-33 5-6 11-11 22-11 6 0 6 0 11 0l95 44c11 6 16 22 11 33l0 0z" horiz-adv-x="1167" />

<glyph glyph-name="set-4-wishlist" unicode="&#xe812;" d="M583-150c-8 0-16 0-25 8l-408 392c-8 8-8 17-17 17s-25 25-41 50-25 41-42 58-25 50-33 83-17 59-17 84c0 91 25 166 83 225s134 83 225 83c25 0 59-8 84-17s50-25 75-41 50-25 66-42 34-25 50-42c17 17 34 34 50 42s42 25 59 42 50 25 75 41 58 17 91 17c100 0 175-25 225-83s84-125 84-225c0-100-50-192-150-292l-409-392c-8-8-16-8-25-8l0 0z" horiz-adv-x="1167" />

<glyph glyph-name="set-1-wishlist" unicode="&#xe813;" d="M712 244l188 183-265 41-117 241-118-241-265-41 189-183-47-265 235 124 235-124-35 265z m323 224c0-12-6-18-17-30l-224-223 53-312c0 0 0-6 0-12 0-23-6-29-23-29-6 0-18 0-24 6l-282 147-283-147c-11-6-17-6-23-6-6 0-18 6-18 11-6 6-6 12-6 24 0 0 0 6 0 12l53 312-223 217c-12 12-18 18-18 30 0 11 12 23 35 29l312 47 141 283c6 17 18 23 30 23 11 0 23-6 29-23l141-283 312-47c24-6 35-18 35-29l0 0z" horiz-adv-x="1059" />

<glyph glyph-name="set-4-quickbuy" unicode="&#xe814;" d="M833-25c0 8 0 25-8 33s-25 9-33 9-25 0-34-9-8-25-8-33 0-25 8-33 25-9 34-9 25 0 33 9 8 25 8 33l0 0z m167 0c0 8 0 25-8 33s-25 9-34 9-25 0-33-9-8-25-8-33 0-25 8-33 17-9 33-9 25 0 34 9 8 25 8 33l0 0z m83 142v-209c0-16-8-33-16-41s-25-17-50-17h-950c-17 0-34 8-42 17s-25 25-25 50v200c0 16 8 33 17 41s25 25 50 25h300l91-91c25-25 59-34 92-34s67 9 92 34l75 91h300c16 0 33-8 41-16s25-25 25-50l0 0z m-208 375c8-17 8-34-8-42l-292-300c-8-8-25-8-33-8s-25 0-34 8l-291 292c-9 16-9 33-9 50 9 16 25 25 42 25h167v291c0 9 0 25 8 34s25 8 33 8h167c8 0 25 0 33-8s9-25 9-34v-291h166c17 0 34-9 42-25l0 0z" horiz-adv-x="1083" />

<glyph glyph-name="set-4-quickview" unicode="&#xe815;" d="M764 279h-71c-7 0-22 7-29 14s-14 14-14 28v79c0 14 7 21 14 29 7 7 15 14 29 14h71c-14 43-35 86-71 121-36 29-79 57-122 72v-72c0-14-7-21-14-28-7-7-14-15-28-15h-79c-14 0-21 8-29 15-7 7-14 14-14 28v72c-43-15-86-43-121-72s-57-71-72-121h72c14 0 21-7 28-14 7-8 15-15 15-29v-79c0-14-8-21-15-28-7-7-14-14-28-14h-72c15-43 36-86 72-122 35-36 71-57 121-71v71c0 14 7 22 14 29 8 7 15 14 29 14h79c14 0 21-7 28-14 7-7 14-22 14-29v-71c43 14 86 35 122 71 36 36 57 79 71 122l0 0z m215 121v-79c0-14-8-21-15-28-7-7-14-14-28-14h-93c-14-72-50-129-100-179-43-50-100-79-172-100v-93c0-14-7-21-14-28-7-8-14-15-28-15h-79c-14 0-21 7-29 15-7 7-14 14-14 28v93c-71 14-128 50-178 100-50 50-79 107-100 179h-86c-14 0-22 7-29 14-7 7-14 14-14 28v79c0 14 7 21 14 29 7 7 15 14 29 14h93c14 71 50 128 100 178 50 50 107 86 178 100v86c0 14 7 22 15 29 0 7 7 14 21 14h79c14 0 21-7 28-14 7-7 14-15 14-29v-93c72-14 129-50 179-100 50-50 86-107 100-178h93c14 0 21-7 28-15 8 0 8-7 8-21l0 0z" horiz-adv-x="1000" />

<glyph glyph-name="set-4-compare" unicode="&#xe816;" d="M400 558c-23-31-54-85-85-162-7 16-15 31-23 46s-7 23-23 39-15 23-30 31-24 15-39 23-31 7-46 7h-139c0 0-7 0-7 8s-8 8-8 8v123c0 8 0 8 8 15s7 0 7 0h139c100 0 185-46 246-138l0 0z m677-477c0-8 0-8-8-16l-192-192c0 0-8-8-15-8-8 0-8 0-16 8s0 8 0 15v116c-15 0-31 0-54 0s-38 0-46 0-23 0-46 0-31 0-46 0-23 0-39 8-30 7-38 7-23 8-38 16-24 15-39 23-8 31-23 38-23 31-31 46c23 31 54 93 85 162 8-15 15-31 23-46s8-23 23-39 23-23 31-30 23-16 38-24 31-7 46-7h154v115c0 8 0 8 8 16s8 7 15 7c8 0 8 0 16-7l192-193c0-7 0-7 0-15l0 0z m0 538c0-7 0-7-8-15l-192-192c0 0-8-8-15-8-8 0-8 0-16 8s0 7 0 15v115h-154c-15 0-38 0-53-7s-31-16-39-31-23-23-31-31-15-31-30-54c-8-23-24-54-47-100-7-23-23-46-30-69s-16-38-31-61-23-47-39-62-23-31-46-46-38-31-54-39-38-23-61-30-46-8-77-8h-139c-7 0-7 0-15 8s0 7 0 7v123c0 8 0 8 8 16s7 0 7 0h139c15 0 38 0 54 7s31 16 38 31 23 23 31 39 15 23 31 46c15 23 31 61 46 100 8 23 23 46 31 69s15 39 30 62 24 46 39 61 23 31 46 46 39 31 54 39 38 23 61 31 47 7 77 7h154v116c0 7 0 7 8 15s8 8 15 8c8 0 8 0 16-8l192-192c0-8 0-8 0-16l0 0z" horiz-adv-x="1077" />

<glyph glyph-name="set-6-wishlist" unicode="&#xe817;" d="M1069 550c0 39-7 69-15 92-8 23-23 47-39 62-15 15-30 31-53 38-23 8-39 16-62 23-23 0-38 8-61 8s-47-8-70-15c-23-16-46-31-69-46-15-16-38-31-54-47-15-15-31-30-38-38-8-15-16-15-31-15s-23 0-31 15c-7 8-23 23-38 38-16 16-39 31-54 47-23 15-46 30-77 38-23 15-46 15-69 15s-46 0-62-7c-23 0-38-8-61-23-23 0-39-16-54-31-16-15-23-39-31-62-15-30-15-61-15-92 0-69 38-146 123-231l377-361 377 361c69 85 107 154 107 231l0 0z m-61-292l-400-385c-8-8-16-15-31-15s-23 7-31 15l-400 385c-7 0-7 7-15 15s-23 23-39 46-30 39-46 62c-15 23-23 46-31 77-7 31-15 61-15 92 0 92 31 169 85 223 54 54 130 77 223 77 23 0 54-8 84-15 31-8 54-23 77-39s46-31 62-46c15-15 31-31 46-46 15 15 31 31 46 46 16 15 39 31 62 46s46 31 77 39c30 7 61 15 84 15 93 0 169-23 223-77 54-54 85-131 85-223 0-100-46-192-146-292z" horiz-adv-x="1154" />

<glyph glyph-name="set-4-cart" unicode="&#xe818;" d="M1071 421c22 0 36-7 50-21s22-29 22-50-7-36-22-50-28-21-50-21h-7l-64-372c0-14-14-28-21-43s-36-14-50-14h-715c-14 0-35 7-43 14s-21 29-28 43l-64 372h-8c-21 0-35 7-50 21s-21 29-21 50 7 36 21 50 29 21 50 21h1000z m-800-442c8 0 15 7 22 14s7 14 7 28l-14 222c0 7-7 14-15 21s-14 15-21 15-21-8-29-15-7-14-7-21l15-229c0-7 7-14 14-21s14-14 28-14l0 0z m229 28v236c0 7 0 21-7 28s-22 8-29 8-21 0-28-8-7-21-7-28v-229c0-7 0-21 7-28s14-7 28-7 22 0 29 7 7 14 7 21l0 0z m214 0v236c0 7 0 21-7 28s-21 8-28 8-22 0-29-8-7-21-7-28v-229c0-7 0-21 7-28s14-7 29-7 21 0 28 7 7 14 7 21l0 0z m200 0l15 236c0 7 0 21-8 28s-14 8-28 8-22 0-29-8-7-14-7-28l-14-229c0-7 0-21 7-28s14-15 21-15h0c8 0 15 0 22 8s14 21 21 28l0 0z m-650 679l-50-229h-71l57 243c7 36 21 57 50 79s57 28 86 28h93c0 7 0 22 7 29s21 14 28 14h215c7 0 21 0 28-7s7-22 7-29h93c36 0 64-7 86-28s43-50 50-79l57-250h-71l-50 229c-8 14-15 28-29 43s-29 14-43 14h-93c0-7 0-22-7-29s-21-7-28-7h-215c-7 0-21 0-28 7s-7 22-7 29h-93c-15 0-29-7-43-14s-22-29-29-43l0 0z" horiz-adv-x="1143" />

<glyph glyph-name="set-6-cart" unicode="&#xe819;" d="M188-150l625 0c34 0 62 28 62 62l0 688c0 35-28 63-62 63l-126 0c-1 103-84 187-187 187s-186-84-187-187l-125 0c-35 0-63-28-63-63l0-688c0-34 28-62 63-62z m406 625l-188 0c-17 0-31 14-31 31 0 18 14 32 31 32l188 0c17 0 31-14 31-32 0-17-14-31-31-31z m-94 313c68 0 123-56 125-125l-250 0c2 69 57 125 125 125z" horiz-adv-x="1000" />

<glyph glyph-name="set-6-quickview" unicode="&#xe81a;" d="M929 314q-85 132-213 197 34-58 34-125 0-104-73-177t-177-73-177 73-73 177q0 67 34 125-128-65-213-197 75-114 187-182t242-68 242 68 187 182z m-402 215q0 11-8 19t-19 7q-70 0-120-50t-50-119q0-11 8-19t19-8 19 8 8 19q0 48 34 82t82 34q11 0 19 8t8 19z m473-215q0-19-11-38-78-129-210-206t-279-77-279 77-210 206q-11 19-11 38t11 39q78 128 210 205t279 78 279-78 210-205q11-20 11-39z" horiz-adv-x="1000" />

<glyph glyph-name="icon-cart-4" unicode="&#xe81b;" d="M500 850c-276 0-500-224-500-500s224-500 500-500c276 0 500 224 500 500s-224 500-500 500z m1-913c-230 0-416 186-416 415s186 416 416 416c229 0 415-186 415-416s-186-415-415-415z m-112 244c0-28-22-50-49-50s-50 22-50 50c0 27 22 49 50 49s49-22 49-49z m258 0c0-28-23-50-50-50s-50 22-50 50c0 27 22 49 50 49s50-22 50-49z m82 388h-45c-33 0-36-26-36-26l-1-9v0l-11-47c-2-7-9-18-32-18h-369l65-209h353l32 173 9 43 0 3c2 7 10 28 42 29h4c8 0 26 4 25 27v4c0 31-36 30-36 30z" horiz-adv-x="1000" />

<glyph glyph-name="icon-cart-5" unicode="&#xe81c;" d="M500 850c-276 0-500-224-500-500s224-500 500-500c276 0 500 224 500 500s-224 500-500 500z m-160-719c-28 0-50 22-50 50s22 49 50 49 49-22 49-49-22-50-49-50z m257 0c-28 0-50 22-50 50s22 49 50 49 50-22 50-49-23-50-50-50z m168 404c1-23-17-27-25-27h-4c-32-1-40-22-42-29l0-3-9-43-32-173h-353l-65 209h369c22 0 30 11 32 18l11 47v0l1 9c0 0 3 26 36 26h45c0 0 36 1 36-30v-4z" horiz-adv-x="1000" />

<glyph glyph-name="icon-cart-6" unicode="&#xe81d;" d="M999-123l-208 625c-3 9-11 15-20 15h-63v-125c0-12-9-21-20-21s-21 9-21 21v125h-334v-125c0-12-9-21-20-21s-21 9-21 21v125h-63c-9 0-17-6-20-15l-208-625c-2-6-1-13 3-18 4-6 10-9 17-9h958c7 0 13 3 17 9 4 5 5 12 3 18z m-666 806c0 87 74 125 146 125h42c72 0 146-38 146-125v-125h41v125c0 99-77 167-187 167h-42c-110 0-187-68-187-167v-125h41v125z" horiz-adv-x="1000" />

<glyph glyph-name="icon-cart-7" unicode="&#xe81e;" d="M979-150h-958c-5 0-11 3-14 7-3 4-4 10-2 15l208 633c3 7 9 12 16 12h542c7 0 14-5 16-12l208-633c2-5 1-11-2-15-3-4-8-7-14-7z m-935 33h912l-197 600h-518l-197-600z m631 484c-9 0-16 7-16 16v305c0 79-53 129-138 129h-42c-74 0-154-41-154-129v-305c0-9-7-16-16-16-9 0-17 7-17 16v305c0 94 79 162 187 162h42c104 0 171-64 171-162v-305c0-9-7-16-17-16z" horiz-adv-x="1000" />

<glyph glyph-name="icon-cart-8" unicode="&#xe81f;" d="M896-108h-792c-46 0-83 37-83 83l83 500c14 72 56 83 102 83h55c31 145 127 250 239 250s208-105 239-250h55c46 0 88-11 102-83l83-500c0-46-37-83-83-83z m-396 875c-91 0-168-87-196-209h392c-28 122-105 209-196 209z m354-292c-6 28-20 42-49 42h-59c2-21 4-41 4-63 0-11-9-21-21-21s-21 10-21 21c0 22-1 43-4 63h-408c-3-20-4-41-4-63 0-11-10-21-21-21s-21 10-21 21c0 22 2 42 4 63h-59c-29 0-43-14-49-42l-83-500c0-23 18-42 41-42h792c23 0 42 19 42 42l-84 500z" horiz-adv-x="1000" />

<glyph glyph-name="icon-cart-9" unicode="&#xe900;" d="M813 663h-126c-1 103-84 187-187 187s-186-84-187-187h-125c-35 0-63-28-63-63v-688c0-34 28-62 63-62h625c34 0 62 28 62 62v688c0 35-28 63-62 63z m-313 125c68 0 123-56 125-125h-250c2 69 57 125 125 125z m313-876h-625v688h625v-688z m-407 563h188c17 0 31 14 31 31s-14 32-31 32h-188c-17 0-31-14-31-32s14-31 31-31z" horiz-adv-x="1000" />

<glyph glyph-name="icon-cart-10" unicode="&#xe901;" d="M188-150h625c34 0 62 28 62 62v688c0 35-28 63-62 63h-126c-1 103-84 187-187 187s-186-84-187-187h-125c-35 0-63-28-63-63v-688c0-34 28-62 63-62z m406 625h-188c-17 0-31 14-31 31s14 32 31 32h188c17 0 31-14 31-32s-14-31-31-31z m-94 313c68 0 123-56 125-125h-250c2 69 57 125 125 125z" horiz-adv-x="1000" />

<glyph glyph-name="set-2-compare" unicode="&#xea96;" d="M625 219v631l63-62h-438l63 62v-637l-38-32-25 13v50l181 156 44 38 38-38 175-156v-56l-19-13-44 44 0 0z m-375 631h438v-687l-213 187-225-187v687l0 0z m-250-125h188v-125h-188v125z m750 0h188v-125h-188v125z m-750-750h938v-125h-938v125z m0 625h125v-625h-125v625z m813 0h125v-625h-125v625z" horiz-adv-x="938" />

<glyph glyph-name="set-1-quickbuy" unicode="&#xea97;" d="M111 461l0 0v-500c0 0 0 0 0 0h611c0 0 0 0 0 0v500c0 0 0 0 0 0l-611 0c0 0 0 0 0 0l0 0z m-111 0c0 61 50 111 111 111h611c61 0 111-50 111-111v-500c0-61-50-111-111-111h-611c-61 0-111 50-111 111v500l0 0z m167 0l0 0 0 0-56 56v0l611 0 0-56h-55v50 117c0 94-73 166-167 166h-167c-94 0-166-72-166-166v-111-56z m-56 0v56 111c0 122 100 222 222 222h167c122 0 222-100 222-222v-117-50l-611 0 0 0z m217-355l-6-6 45-44 244 255-44 39-200-200-106 106-39-45 106-105z" horiz-adv-x="833" />

<glyph glyph-name="set-3-quickview" unicode="&#xea9a;" d="M417 433h-417v-166h417v-417h166v417h417v166h-417v417h-166v-417z" horiz-adv-x="1000" />

<glyph glyph-name="set-3-wishlist" unicode="&#xf08a;" d="M929 517q0 46-12 80t-31 55-46 33-52 18-55 4-62-14-62-36-48-40-34-34q-10-13-27-13t-27 13q-14 15-34 34t-48 40-62 36-62 14-55-4-52-18-46-33-31-55-12-80q0-93 105-198l324-312 324 312q105 105 105 198z m71 0q0-123-128-251l-347-335q-10-10-25-10t-25 10l-348 336q-5 5-15 15t-31 37-38 54-30 67-13 77q0 123 71 192t196 70q34 0 70-12t67-33 54-38 42-38q20 20 42 38t54 38 67 33 70 12q125 0 196-70t71-192z" horiz-adv-x="1000" />

<glyph glyph-name="set-6-compare" unicode="&#xf0ec;" d="M1000 189v-107q0-7-5-12t-13-6h-768v-107q0-7-5-12t-13-6q-6 0-13 6l-178 178q-5 5-5 13 0 8 5 13l179 178q5 5 12 5 8 0 13-5t5-13v-107h768q7 0 13-5t5-13z m0 304q0-8-5-13l-179-179q-5-5-12-5-8 0-13 6t-5 12v107h-768q-7 0-13 6t-5 12v107q0 8 5 13t13 5h768v107q0 8 5 13t13 5q6 0 13-5l178-178q5-5 5-13z" horiz-adv-x="1000" />

<glyph glyph-name="set-6-quickbuy" unicode="&#xf218;" d="M714 457q0 15-10 25t-25 11-25-11l-83-81v163q0 15-10 25t-25 11-25-11-11-25v-163l-82 81q-11 11-25 11t-25-11-11-25 11-25l143-143q10-10 25-10t25 10l143 143q10 11 10 25z m-357-464q0-30-21-51t-50-21-51 21-21 51 21 50 51 21 50-21 21-50z m500 0q0-30-21-51t-50-21-51 21-21 51 21 50 51 21 50-21 21-50z m72 607v-286q0-13-9-23t-23-12l-583-68q1-4 3-12t3-15 1-13q0-8-13-35h513q15 0 26-11t10-25-10-25-26-11h-571q-14 0-25 11t-11 25q0 8 6 22t17 33 11 22l-98 459h-114q-15 0-25 10t-11 25 11 26 25 10h143q9 0 16-3t11-9 7-14 4-15 3-16 3-14h670q14 0 25-11t11-25z" horiz-adv-x="928.6" />
</font>
</defs>
</svg>
